<?xml version="1.0" encoding="UTF-8" standalone="no"?>
<!DOCTYPE svg PUBLIC "-//W3C//DTD SVG 1.1//EN" "http://www.w3.org/Graphics/SVG/1.1/DTD/svg11.dtd">
<svg xmlns="http://www.w3.org/2000/svg" version="1.1" viewBox="0.00 0.00 512.00 512.00">
<path fill="#196146" d="
  M 254.14 0.00
  L 258.24 0.00
  Q 315.97 0.76 365.63 24.61
  Q 412.31 47.03 445.67 84.07
  Q 507.36 152.56 512.00 246.37
  L 512.00 265.73
  Q 509.56 322.58 484.94 370.94
  Q 463.22 413.63 429.31 444.55
  Q 360.43 507.37 265.64 512.00
  L 246.52 512.00
  Q 185.77 509.39 134.55 481.43
  Q 88.44 456.25 56.65 416.58
  Q 2.11 348.51 0.00 259.62
  L 0.00 252.48
  Q 2.58 155.07 66.53 84.01
  Q 97.65 49.43 141.08 27.30
  Q 193.13 0.78 254.14 0.00
  Z
  M 401.26 149.60
  A 0.34 0.34 0.0 0 0 401.04 149.00
  L 111.15 149.00
  A 0.34 0.34 0.0 0 0 110.93 149.60
  L 255.88 274.01
  A 0.34 0.34 0.0 0 0 256.32 274.01
  L 401.26 149.60
  Z
  M 415.56 352.63
  A 0.33 0.33 0.0 0 0 416.10 352.38
  L 416.10 155.82
  A 0.33 0.33 0.0 0 0 415.56 155.57
  L 301.07 253.85
  A 0.33 0.33 0.0 0 0 301.07 254.35
  L 415.56 352.63
  Z
  M 96.61 155.53
  A 0.35 0.35 0.0 0 0 96.03 155.80
  L 96.03 352.40
  A 0.35 0.35 0.0 0 0 96.61 352.67
  L 211.12 254.37
  A 0.35 0.35 0.0 0 0 211.12 253.83
  L 96.61 155.53
  Z
  M 106.46 362.45
  Q 105.60 363.18 106.74 363.18
  L 405.93 363.18
  Q 406.60 363.18 406.09 362.74
  L 290.61 263.61
  Q 290.15 263.22 289.70 263.61
  Q 277.08 274.41 261.18 288.12
  C 258.29 290.62 254.59 291.10 251.49 288.46
  Q 236.91 276.00 222.24 263.37
  A 0.29 0.29 0.0 0 0 221.86 263.37
  L 106.46 362.45
  Z"
/>
</svg>
