<svg version="1.2" xmlns="http://www.w3.org/2000/svg" viewBox="0 0 787 1144" width="787" height="1144">
	<title>Logo-svg</title>
	<style>
		.s0 { fill: #196146 } 
	</style>
	<path id="Layer" class="s0" d="m137 119q0 53.2 0 111.6c0 13.5-1 26.7-1 40q0 42.1 0 83.4 0 9.8 0.5 20 1 21 0.3 40.8-1.2 39.2-4.1 76-1.8 22.6-4.8 68.2-0.6 9.9-1.7 20-2.7 26.3-6.6 60.3c-2.6 22.8-3.8 47.3-5.7 68.2-4.6 52.2-12.6 105.8-22.1 157.9-0.9 5-1.8 10.1-3.2 15q-7.6 27.2-14.6 53.3-2.6 9.8-5.7 17.8c-2 5-6.4 12.5-12 13.5-10.8 2.1-10.6-13.5-10.9-20q-7.6-149.1-15-294.8c-3.8-74.2-7-148.2-11.6-220.9-0.9-13.6-1.8-27-1.8-40.7q0-178.9 0-357.8 0-0.1 0-0.2 0.1-0.1 0.2-0.2 0-0.1 0.1-0.2 0.2 0 0.3-0.1 21.9-2.9 42.8-5.5 81.7-9.9 163.8-13.2 9.9-0.4 20.4-0.4 23.8-0.1 48.8 0.1 15.3 0.1 47.8 2.2c53.9 3.5 107.8 13.2 158.7 29.5 26.6 8.5 52.7 19 76.7 33.2q8.1 4.8 17.3 10.8 48 31.1 86.3 74.6 38.1 43.5 60.1 96.7c21.7 52.7 34 109.4 37.2 166.1 0.9 15.6 0.7 32.3 0.4 47.8q-0.8 45.8-17.5 88-9.9 25.1-26.2 50.7-34.4 53.9-85.2 92.9-27.6 21.3-53.6 35.2c-40.7 21.7-89 24.6-132 9.6-51.1-17.9-89.6-58.8-104.6-111.3q-9.2-31.9-6.2-61c6.1-59.4 50.6-104.9 109-116q35.2-6.7 71.9-3.8c20.6 1.6 41 6.2 60 14.4 9.7 4.3 19 8 28 14.2q10.7 7.5 19.2 14.2 1.8 1.4 1.2 3.6-0.2 0.6-0.3 1.2c-6.3 32-12.9 60.9-24.4 90.3-1.1 2.6-1.1 5.4-2.6 7.8q-0.1 0.1-0.2 0.2-0.2 0.1-0.4 0.1-0.1 0-0.3-0.1-0.1-0.1-0.2-0.2-0.6-0.9-1-1.9-6-14.8-15.9-28.5-9.7-13.5-23-21.4-21-12.3-45.1-14c-16.8-1.2-32.9 0.6-49.1 6.9q-6.4 2.5-12 6.6c-21.2 15.4-32.8 40.8-29.8 67q0.5 5 2.1 9.2 5.6 15.9 15.6 28.4c5.3 6.7 12.3 11.1 21 13.7q20.5 6 41.2 6 10.9-0.1 19.9-1.8c30.1-5.9 57.6-21 73.5-47 7.3-11.9 14.9-24.9 20.6-38q8.8-20.5 13.6-42.3c4.4-20 7.3-39.9 7.8-60.1q0.7-30-1.6-56.5c-1.5-17.9-3.5-36.5-6.2-54.8q-3.5-24.4-11.9-46.4-4.1-10.9-6.8-18.9-7.7-22.5-15.8-39.6-12.5-26.5-33.3-47.8c-10.9-11.2-21.7-22-33.9-31.8q-31.1-25.2-66.2-43.4-20.9-10.8-39.4-18-2.5-0.9-5.1-1.6-17.2-4.1-34.4-8.3c-12.9-3.3-26.9-6.4-40-7.6q-27.9-2.8-51-3c-17.5-0.2-38.7-0.5-57.8 0.3q-56.3 2.3-111.9 10.9-0.6 0.1-0.6 0.7z"/>
	<path id="Layer" class="s0" d="m707.4 745.2c-12.5 36.1-37.7 68.4-67.6 91.9-11.3 8.9-23.1 16.6-35.2 24.2q-41.9 26.5-91.7 44.3-28.2 10.1-49.6 16.8-56.9 17.6-114 26.8c-26.1 4.1-51.9 6.6-77.4 8.2q-16.6 1-41.2 0.5c-5.2-0.1-10 0-14.8-1.9q-2.3-0.9-2-3.4c0.4-2.6 5.4-4.4 7.4-5q12-3.8 24.8-7.1c38.2-10 76.7-21.7 115.6-30.8q26.4-6.1 56.1-17.9 30.1-11.9 56.5-23.2c25.5-10.9 50.9-26.7 74.6-43 25.9-17.8 47.1-44.1 62.3-72.2q4.2-7.8 7.1-16.8c0.7-2.1 2.1-3.5 4.2-4.2q8.9-2.7 18.5-10c16.9-12.9 34.6-25 48.6-40.1q12.7-13.5 23.9-28.2 0.5-0.7 1.3-1.2 0.8-0.6 1 0.5 7 47-8.4 91.8z"/>
	<path id="Layer" fill-rule="evenodd" class="s0" d="m128.8 1111c-0.9 10.9-8.7 19.9-18.3 24.5q-3.5 1.7-8.3 1.6-21.5-0.1-41.9-0.1-2.5-0.1-5.1-0.4-0.2 0-0.5-0.1-0.3-0.1-0.5-0.3-0.2-0.2-0.3-0.4-0.2-0.2-0.3-0.5-0.6-1.5-0.6-3.5 0-55.8 0-111.5 0-3.7 0.8-6.5 0.1-0.3 0.3-0.7 0.3-0.3 0.6-0.5 0.3-0.3 0.7-0.4 0.3-0.1 0.7-0.1 22.1-0.2 40.8-0.2c5.3 0 10.5 0.3 15.3 2.9q11.6 6.3 15.5 18 1.5 4.5 1.4 14.2-0.2 22.5-0.1 44.1c0 6.6 0.4 13.2-0.2 19.9zm-61.9-85l0.2 97.2q0 0.2 0 0.4 0.1 0.1 0.3 0.3 0.1 0.1 0.3 0.2 0.2 0.1 0.4 0.1l29.2-0.1c2.5 0 4.9-0.5 7.2-1.4 2.3-1 4.3-2.4 6.1-4.2 1.7-1.8 3.1-4 4.1-6.3 0.9-2.3 1.4-4.9 1.4-7.4l-0.1-60.6c0-2.5-0.5-5.1-1.5-7.4-0.9-2.3-2.3-4.5-4.1-6.3-1.7-1.7-3.8-3.2-6.1-4.1-2.3-1-4.7-1.5-7.2-1.5l-29.2 0.1q-0.2 0-0.4 0.1-0.2 0-0.3 0.2-0.1 0.1-0.2 0.3-0.1 0.2-0.1 0.4z"/>
	<path id="Layer" fill-rule="evenodd" class="s0" d="m463.3 1068c2.1 1.7 4.6 3.2 6.5 5.2 11.8 12.5 13.6 30.8 5.4 45.5-3.9 7-11.4 13.6-18.9 16.7q-4.1 1.8-9.7 1.7-19.3 0-38.8-0.2-3.8-0.1-3.8-3.9v-117q0-3.9 3.9-4 16.4-0.1 36.4-0.1 8.5 0 14.4 4.1c6.4 4.4 11.2 9.6 13.6 17.2 3.9 12.1 0.8 25.6-9.1 33.9q-0.1 0.1-0.1 0.2-0.1 0.1-0.1 0.3 0.1 0.1 0.1 0.2 0.1 0.1 0.2 0.2zm-46.3-42.4v35.6q0 0.2 0.1 0.3 0 0.1 0.1 0.2 0.1 0.1 0.2 0.2 0.2 0 0.3 0h23c2.6 0 5.1-0.5 7.5-1.4 2.3-0.9 4.5-2.3 6.3-4 1.8-1.7 3.2-3.7 4.2-5.9 1-2.3 1.5-4.6 1.5-7.1v-0.2c0-2.5-0.5-4.8-1.5-7.1-1-2.2-2.4-4.2-4.2-5.9-1.8-1.7-4-3.1-6.3-4-2.4-0.9-4.9-1.4-7.5-1.4h-23q-0.1 0-0.3 0-0.1 0.1-0.2 0.2-0.1 0.1-0.1 0.2-0.1 0.1-0.1 0.3zm49 69.9c-0.9-9.6-9.9-17.9-18.7-19.6q-5.5-1.1-14.9-1-7.5 0-14.4 0.1-1 0-1 1v47.7q0 0.1 0 0.1 0 0.1 0.1 0.1 0 0 0.1 0.1 0 0 0.1 0 13 0.1 27.2-0.1 4.5-0.1 6.9-1.2 16.5-7.5 14.6-27.2z"/>
	<path id="Layer" class="s0" d="m267.3 1048.4q0 0.2 0.1 0.3 0.1 0.1 0.2 0.2 0.1 0 0.2 0.1 0.1 0 0.3 0 9-0.1 17.6 0.1c6.7 0.2 8.1 6.6 5.1 11.4q-1.5 2.3-4.2 2.3-9 0.3-18.4 0.2-0.2 0-0.4 0.1-0.3 0.1-0.4 0.3-0.2 0.1-0.3 0.4-0.1 0.2-0.1 0.5 0 35.9 0 68.8c0 1.7-0.9 3.4-2.8 3.7q-4.3 0.6-8.2 0.1c-1.3-0.1-2.2-1-2.3-2.4-0.2-2.3-0.7-4.7-0.7-7.1q0-32.7 0-63.4 0-0.2-0.1-0.3 0-0.2-0.1-0.3-0.2-0.2-0.3-0.2-0.2-0.1-0.3-0.1c-5.7-0.4-10.8 0.8-11.3-7.1-0.5-7.3 6.6-7.3 11.7-7q0.7 0.1 0.7-0.6-0.6-12.4-0.2-28.2c0.1-2.8 0.8-7.9 4.3-8.1q3.1-0.3 6.4 0c2.9 0.2 3.1 4.3 3.1 6.6q0.1 14.6 0.2 28.3 0 0.7 0.2 1.4z"/>
	<path id="Layer" class="s0" d="m704.9 1087.9l-10.3 7.9q-0.3 0.3-0.6 0.7-0.3 0.4-0.6 0.8-0.2 0.4-0.3 0.9-0.1 0.5-0.1 0.9 0 14.8 0 29.2c0 2.6 0.2 8.3-3.2 8.6q-3.6 0.4-6.8 0.1-4-0.3-4-4.5 0-8.9-0.1-16.8 0-45.9 0-91c0-3.5-0.4-9.6 2.6-11.8 2-1.6 6.8-1 8.9-0.3 2.8 0.9 2.6 5.2 2.6 7.5q0 26.9 0 57.9 0 0.3 0.1 0.5 0.1 0.3 0.4 0.4 0.2 0.1 0.5 0.1 0.2-0.1 0.4-0.2 17.4-13.3 33.4-25.2 2.6-2 5.2-3.6c3-1.7 8-1.6 8.9 2.5 0.8 3.6 0.7 7.2-2.6 9.7q-11.9 9.2-22.9 17.1-0.5 0.4 0.1 0.8c0.4 0.3 0.8 0.8 1 1.3q10.1 18.8 20.5 38.4c2.9 5.5 5.2 10.3 3.8 15.8q0 0.2-0.1 0.4-0.2 0.2-0.3 0.4-0.2 0.2-0.4 0.3-0.2 0.1-0.5 0.1c-2.2 0.4-8.1 1.1-9.5-1.3q-3.2-5.4-6.3-11.2-9-16.9-19.3-36.3-0.2-0.4-0.5-0.1z"/>
	<path id="Layer" fill-rule="evenodd" class="s0" d="m202.9 1086.1q0.3-6.2 0.2-12c-0.1-6.5-4.7-11.3-11.1-11.1q-11.8 0.2-25.1-0.1c-7.1-0.1-9.8-6.9-5.4-12.1q1.4-1.6 3.3-1.7 12.7-0.4 26.4-0.2c7.8 0.2 12.7 2.5 18.3 7.7q7.5 6.9 7.5 17.6 0 24.3 0 57 0 2.3-0.6 4.5-0.2 0.5-0.7 0.7-1.9 0.6-3.9 0.6-18.5 0.1-35.8 0.2-3.5 0-6.9-0.9c-5.9-1.6-12.1-9.4-14.1-14.1q-4.1-9.5-0.3-18.8c3.2-7.7 8.3-13.7 16.3-15.7q3.7-0.9 9.2-0.9 10.7 0.1 21.8 0.2 0.2 0 0.3-0.1 0.2 0 0.3-0.2 0.2-0.1 0.3-0.3 0-0.1 0-0.3zm0.1 36.9v-21q0-0.2-0.1-0.4-0.1-0.2-0.2-0.3-0.2-0.2-0.4-0.3-0.2-0.1-0.4-0.1h-23.9c-1.4 0-2.9 0.3-4.2 0.9-1.4 0.6-2.6 1.4-3.6 2.5-1.1 1-1.9 2.3-2.4 3.7-0.6 1.4-0.9 2.9-0.9 4.4v0.2c0 1.5 0.3 3 0.9 4.4 0.5 1.4 1.3 2.7 2.4 3.7 1 1.1 2.2 1.9 3.6 2.5 1.3 0.6 2.8 0.9 4.2 0.9h23.9q0.2 0 0.4-0.1 0.2-0.1 0.4-0.3 0.1-0.1 0.2-0.3 0.1-0.2 0.1-0.4z"/>
	<path id="Layer" fill-rule="evenodd" class="s0" d="m358.8 1086.2q0.7-6.5 0.2-12.7-1-10.4-11.7-10.4-10.6-0.1-22.4-0.1c-2.1 0-4.6 0-6.3-1.2q-4.5-2.9-3.1-8.4 1.1-4.1 5.1-4.3 14.6-0.5 28.3-0.1 7.8 0.3 14 5.4 10.2 8.4 10.2 21.3-0.1 25.1-0.2 55.2 0 2.1-0.7 4.4-0.1 0.3-0.3 0.5-0.1 0.3-0.4 0.5-0.2 0.2-0.5 0.3-0.3 0.1-0.6 0.1-1.7 0.2-3.7 0.2-19.7 0.1-35.2 0.3-8.7 0.1-14.6-5.9c-3.4-3.4-6.5-8-7.5-12.9q-2.5-12.6 5.6-22.9c5.6-6.9 12.9-8.8 21.3-8.7q11.1 0.2 21.6 0.2 0.8 0 0.9-0.8zm0.2 36.9v-21.2q0-0.2-0.1-0.3 0-0.2-0.2-0.4-0.1-0.1-0.3-0.2-0.2 0-0.4-0.1h-24c-1.5 0-2.9 0.3-4.3 0.9-1.3 0.5-2.6 1.3-3.6 2.3-1 1.1-1.9 2.3-2.4 3.6-0.6 1.3-0.9 2.7-0.9 4.2v1.3c0 1.4 0.3 2.8 0.9 4.1 0.5 1.4 1.4 2.6 2.4 3.6 1 1 2.3 1.8 3.6 2.3 1.4 0.6 2.8 0.9 4.3 0.9h24q0.2 0 0.4-0.1 0.2-0.1 0.3-0.2 0.2-0.2 0.2-0.3 0.1-0.2 0.1-0.4z"/>
	<path id="Layer" fill-rule="evenodd" class="s0" d="m547.1 1051q12.7 4.9 18.1 17.3 2.8 6.3 3 17.3 0.2 10-0.2 18.9c-0.5 13.5-6 24.2-18.1 30.5-5.8 3.1-13.6 2.4-20.1 2.2q-4-0.2-6.8-1.5-18.4-9.2-19.1-28.7-0.3-10-0.1-24.7 0.2-10.7 4.3-17.4c8.3-13.6 24.1-19.7 39-13.9zm-29.1 27.4q0 10.2-0.2 23.5-0.1 9 1.9 13.1 3.7 7.5 12.5 9 8.9 1.4 14.4-3 6.8-5.5 7.2-11.8 0.7-10.5 0.1-28.2-0.4-9.5-7.5-14.9-3.1-2.3-6.4-2.9c-5.1-0.8-10.7-0.3-14.8 3.1-3.8 3-7.1 7-7.2 12.1z"/>
	<path id="Layer" fill-rule="evenodd" class="s0" d="m635.7 1051.2c7.4 2.9 15.3 10.7 17.9 18.6q1.4 4.3 1.5 11 0.4 17.4-0.3 30c-0.5 10.2-7.9 18.9-16.6 23.8q-3.8 2.2-7.9 2.5-8.1 0.6-14.5-0.2c-10.3-1.2-21.4-12.7-23.2-22.9q-0.8-4.4-0.8-10.2-0.2-14 0.1-25.6 0.3-10 6.7-17.4c9.6-11 23.5-14.9 37.1-9.6zm-30.4 27.9q-0.7 9.5-0.3 25.4c0.3 13.2 8.6 21.5 22.6 19.3q7-1.1 11.3-8 2.7-4.1 3-11.1 0.7-15-0.4-25-1.3-12.9-13.2-16.1-11.6-3.1-19.2 6-3.4 4.1-3.8 9.5z"/>
</svg>