<?xml version="1.0" encoding="UTF-8" standalone="no"?>
<!DOCTYPE svg PUBLIC "-//W3C//DTD SVG 1.1//EN" "http://www.w3.org/Graphics/SVG/1.1/DTD/svg11.dtd">
<svg xmlns="http://www.w3.org/2000/svg" version="1.1" viewBox="0.00 0.00 1448.00 1448.00">
<path stroke="#80c7cc" stroke-width="2.00" fill="none" stroke-linecap="butt" vector-effect="non-scaling-stroke" d="
  M 481.14 339.30
  Q 474.14 342.03 469.58 346.58
  Q 414.28 401.82 358.33 457.83
  Q 352.50 463.67 349.71 468.05
  Q 341.71 480.61 338.50 494.85
  Q 337.48 499.40 337.34 504.32
  C 337.11 512.52 336.24 520.67 336.78 528.85
  C 338.98 561.99 346.88 593.26 357.89 625.53
  Q 361.15 635.08 364.78 644.00
  Q 384.84 693.32 413.26 738.52
  Q 439.65 780.49 465.83 813.67
  Q 493.85 849.20 528.58 884.45
  Q 555.26 911.53 563.15 919.15
  C 596.30 951.19 630.43 980.78 667.99 1007.28
  Q 695.58 1026.76 738.81 1051.16
  Q 791.42 1080.87 847.48 1097.75
  Q 861.69 1102.02 875.76 1104.53
  Q 897.65 1108.42 920.02 1110.31
  C 926.83 1110.89 934.17 1110.99 941.05 1110.62
  Q 960.97 1109.54 979.10 1098.14
  Q 983.87 1095.14 990.24 1088.80
  Q 1045.03 1034.24 1097.07 982.87
  C 1102.22 977.79 1106.83 972.22 1109.09 965.32
  C 1115.32 946.29 1106.41 930.05 1090.20 920.47
  Q 1012.61 874.61 934.72 828.58
  C 923.63 822.03 910.21 820.83 897.73 823.27
  Q 889.73 824.83 881.76 829.69
  Q 876.84 832.68 868.76 840.92
  Q 852.58 857.41 837.85 872.53
  Q 831.84 878.69 827.21 882.94
  Q 824.86 885.10 820.82 886.17
  Q 817.73 886.99 814.09 886.33
  Q 800.77 883.90 788.82 878.43
  Q 776.60 872.83 767.85 867.62
  Q 719.54 838.85 679.27 798.76
  Q 661.71 781.28 647.15 766.54
  C 625.16 744.28 606.22 720.64 589.37 694.52
  C 577.13 675.54 566.54 655.25 561.08 633.13
  C 560.13 629.30 562.07 622.80 564.85 619.98
  Q 583.18 601.35 601.61 583.22
  Q 608.22 576.72 611.47 571.81
  C 618.30 561.51 621.53 547.77 619.06 535.40
  Q 618.12 530.65 612.93 520.84
  Q 569.20 438.03 527.46 358.89
  Q 526.02 356.16 523.66 353.18
  C 512.79 339.49 498.18 332.65 481.14 339.30"
/>
<path fill="#196146" d="
  M 705.62 0.00
  L 741.99 0.00
  Q 829.54 2.36 911.38 24.36
  Q 1057.98 63.75 1178.29 160.16
  Q 1186.24 166.53 1193.78 173.03
  Q 1302.03 266.27 1365.87 389.03
  Q 1451.71 554.12 1447.61 741.52
  C 1445.11 855.52 1415.41 966.38 1361.76 1066.69
  Q 1357.06 1075.48 1352.02 1084.16
  Q 1272.02 1221.89 1144.62 1313.13
  Q 1027.83 1396.78 885.03 1429.89
  Q 875.55 1432.09 865.49 1434.04
  Q 747.05 1457.00 630.17 1441.78
  Q 482.93 1422.61 355.14 1347.09
  C 253.21 1286.84 168.11 1202.31 106.98 1102.88
  Q 14.57 952.55 1.65 775.21
  Q 1.17 768.72 0.75 758.55
  Q 0.40 750.21 0.00 741.88
  L 0.00 705.53
  Q 4.52 542.34 77.15 397.94
  C 145.77 261.52 257.69 149.14 393.64 79.39
  Q 529.81 9.52 684.64 1.10
  Q 695.12 0.53 705.62 0.00
  Z
  M 481.14 339.30
  Q 474.14 342.03 469.58 346.58
  Q 414.28 401.82 358.33 457.83
  Q 352.50 463.67 349.71 468.05
  Q 341.71 480.61 338.50 494.85
  Q 337.48 499.40 337.34 504.32
  C 337.11 512.52 336.24 520.67 336.78 528.85
  C 338.98 561.99 346.88 593.26 357.89 625.53
  Q 361.15 635.08 364.78 644.00
  Q 384.84 693.32 413.26 738.52
  Q 439.65 780.49 465.83 813.67
  Q 493.85 849.20 528.58 884.45
  Q 555.26 911.53 563.15 919.15
  C 596.30 951.19 630.43 980.78 667.99 1007.28
  Q 695.58 1026.76 738.81 1051.16
  Q 791.42 1080.87 847.48 1097.75
  Q 861.69 1102.02 875.76 1104.53
  Q 897.65 1108.42 920.02 1110.31
  C 926.83 1110.89 934.17 1110.99 941.05 1110.62
  Q 960.97 1109.54 979.10 1098.14
  Q 983.87 1095.14 990.24 1088.80
  Q 1045.03 1034.24 1097.07 982.87
  C 1102.22 977.79 1106.83 972.22 1109.09 965.32
  C 1115.32 946.29 1106.41 930.05 1090.20 920.47
  Q 1012.61 874.61 934.72 828.58
  C 923.63 822.03 910.21 820.83 897.73 823.27
  Q 889.73 824.83 881.76 829.69
  Q 876.84 832.68 868.76 840.92
  Q 852.58 857.41 837.85 872.53
  Q 831.84 878.69 827.21 882.94
  Q 824.86 885.10 820.82 886.17
  Q 817.73 886.99 814.09 886.33
  Q 800.77 883.90 788.82 878.43
  Q 776.60 872.83 767.85 867.62
  Q 719.54 838.85 679.27 798.76
  Q 661.71 781.28 647.15 766.54
  C 625.16 744.28 606.22 720.64 589.37 694.52
  C 577.13 675.54 566.54 655.25 561.08 633.13
  C 560.13 629.30 562.07 622.80 564.85 619.98
  Q 583.18 601.35 601.61 583.22
  Q 608.22 576.72 611.47 571.81
  C 618.30 561.51 621.53 547.77 619.06 535.40
  Q 618.12 530.65 612.93 520.84
  Q 569.20 438.03 527.46 358.89
  Q 526.02 356.16 523.66 353.18
  C 512.79 339.49 498.18 332.65 481.14 339.30
  Z"
/>
<path fill="#ffffff" d="
  M 481.14 339.30
  C 498.18 332.65 512.79 339.49 523.66 353.18
  Q 526.02 356.16 527.46 358.89
  Q 569.20 438.03 612.93 520.84
  Q 618.12 530.65 619.06 535.40
  C 621.53 547.77 618.30 561.51 611.47 571.81
  Q 608.22 576.72 601.61 583.22
  Q 583.18 601.35 564.85 619.98
  C 562.07 622.80 560.13 629.30 561.08 633.13
  C 566.54 655.25 577.13 675.54 589.37 694.52
  C 606.22 720.64 625.16 744.28 647.15 766.54
  Q 661.71 781.28 679.27 798.76
  Q 719.54 838.85 767.85 867.62
  Q 776.60 872.83 788.82 878.43
  Q 800.77 883.90 814.09 886.33
  Q 817.73 886.99 820.82 886.17
  Q 824.86 885.10 827.21 882.94
  Q 831.84 878.69 837.85 872.53
  Q 852.58 857.41 868.76 840.92
  Q 876.84 832.68 881.76 829.69
  Q 889.73 824.83 897.73 823.27
  C 910.21 820.83 923.63 822.03 934.72 828.58
  Q 1012.61 874.61 1090.20 920.47
  C 1106.41 930.05 1115.32 946.29 1109.09 965.32
  C 1106.83 972.22 1102.22 977.79 1097.07 982.87
  Q 1045.03 1034.24 990.24 1088.80
  Q 983.87 1095.14 979.10 1098.14
  Q 960.97 1109.54 941.05 1110.62
  C 934.17 1110.99 926.83 1110.89 920.02 1110.31
  Q 897.65 1108.42 875.76 1104.53
  Q 861.69 1102.02 847.48 1097.75
  Q 791.42 1080.87 738.81 1051.16
  Q 695.58 1026.76 667.99 1007.28
  C 630.43 980.78 596.30 951.19 563.15 919.15
  Q 555.26 911.53 528.58 884.45
  Q 493.85 849.20 465.83 813.67
  Q 439.65 780.49 413.26 738.52
  Q 384.84 693.32 364.78 644.00
  Q 361.15 635.08 357.89 625.53
  C 346.88 593.26 338.98 561.99 336.78 528.85
  C 336.24 520.67 337.11 512.52 337.34 504.32
  Q 337.48 499.40 338.50 494.85
  Q 341.71 480.61 349.71 468.05
  Q 352.50 463.67 358.33 457.83
  Q 414.28 401.82 469.58 346.58
  Q 474.14 342.03 481.14 339.30
  Z"
/>
</svg>
